HIERARCHY
ROOT Hips
{
	OFFSET -3.958830 18.904000 13.208200
	CHANNELS 6 Xposition Yposition Zposition Zrotation Yrotation Xrotation 
	JOINT LHipJoint
	{
		OFFSET 0.000000 0.000000 0.000000
		CHANNELS 3 Zrotation Yrotation Xrotation
		JOINT LeftUpLeg
		{
			OFFSET 1.800000 -1.400000 0.085000
			CHANNELS 3 Zrotation Yrotation Xrotation
			JOINT LeftLeg
			{
				OFFSET 2.215000 -6.000000 0.000000
				CHANNELS 3 Zrotation Yrotation Xrotation
				JOINT LeftFoot
				{
					OFFSET 2.500000 -6.900000 0.000000
					CHANNELS 3 Zrotation Yrotation Xrotation
					JOINT LeftToeBase
					{
						OFFSET 0.200000 -0.500000 1.950000
						CHANNELS 3 Zrotation Yrotation Xrotation
						End Site
						{
							OFFSET 0.000000 0.000000 0.000000
						}
					}
				}
			}
		}
	}
	JOINT RHipJoint
	{
		OFFSET 0.000000 0.000000 0.000000
		CHANNELS 3 Zrotation Yrotation Xrotation
		JOINT RightUpLeg
		{
			OFFSET -1.800000 -1.400000 0.085000
			CHANNELS 3 Zrotation Yrotation Xrotation
			JOINT RightLeg
			{
				OFFSET -2.215000 -6.000000 0.000000
				CHANNELS 3 Zrotation Yrotation Xrotation
				JOINT RightFoot
				{
					OFFSET -2.500000 -6.900000 0.000000
					CHANNELS 3 Zrotation Yrotation Xrotation
					JOINT RightToeBase
					{
						OFFSET -0.200000 -0.500000 1.950000
						CHANNELS 3 Zrotation Yrotation Xrotation
						End Site
						{
							OFFSET 0.000000 0.000000 0.000000
						}
					}
				}
			}
		}
	}
	JOINT LowerBack
	{
		OFFSET 0.000000 0.000000 0.000000
		CHANNELS 3 Zrotation Yrotation Xrotation
		JOINT Spine
		{
			OFFSET -0.087000 1.940000 -0.288900
			CHANNELS 3 Zrotation Yrotation Xrotation
			JOINT Spine1
			{
				OFFSET 0.000000 1.950000 0.060000
				CHANNELS 3 Zrotation Yrotation Xrotation
				JOINT Neck
				{
					OFFSET 0.000000 0.000000 0.000000
					CHANNELS 3 Zrotation Yrotation Xrotation
					JOINT Neck1
					{
						OFFSET 0.000000 1.600000 0.340000
						CHANNELS 3 Zrotation Yrotation Xrotation
						JOINT Head
						{
							OFFSET 0.000000 1.667000 -0.240000
							CHANNELS 3 Zrotation Yrotation Xrotation
							End Site
							{
								OFFSET 0.000000 0.000000 0.000000
							}
						}
					}
				}
				JOINT LeftShoulder
				{
					OFFSET 0.000000 0.000000 0.000000
					CHANNELS 3 Zrotation Yrotation Xrotation
					JOINT LeftArm
					{
						OFFSET 2.700000 1.550000 -0.730000
						CHANNELS 3 Zrotation Yrotation Xrotation
						JOINT LeftForeArm
						{
							OFFSET 5.450000 0.000000 0.000000
							CHANNELS 3 Zrotation Yrotation Xrotation
							JOINT LeftHand
							{
								OFFSET 3.450000 0.000000 0.000000
								CHANNELS 3 Zrotation Yrotation Xrotation
								JOINT LeftHandIndex1
								{
									OFFSET 0.750000 0.000000 0.000000
									CHANNELS 3 Zrotation Yrotation Xrotation
									End Site
									{
										OFFSET 0.000000 0.000000 0.000000
									}
								}
							}
						}
					}
				}
				JOINT RightShoulder
				{
					OFFSET 0.000000 0.000000 0.000000
					CHANNELS 3 Zrotation Yrotation Xrotation
					JOINT RightArm
					{
						OFFSET -2.700000 1.550000 -0.730000
						CHANNELS 3 Zrotation Yrotation Xrotation
						JOINT RightForeArm
						{
							OFFSET -5.450000 0.000000 0.000000
							CHANNELS 3 Zrotation Yrotation Xrotation
							JOINT RightHand
							{
								OFFSET -3.450000 0.000000 0.000000
								CHANNELS 3 Zrotation Yrotation Xrotation
								JOINT RightHandIndex1
								{
									OFFSET -0.750000 0.000000 0.000000
									CHANNELS 3 Zrotation Yrotation Xrotation
									End Site
									{
										OFFSET 0.000000 0.000000 0.000000
									}
								}
							}
						}
					}
				}
			}
		}
	}
}
MOTION
Frames: 4
Frame Time: 0.016667
0.155190 16.030950 -1.487060 -3.932672 -2.456415 -4.117223 -15.297101 11.239450 4.885934 19.245730 -5.033136 -25.331411 -30.472220 26.868246 44.349164 1.600175 12.637410 0.345031 0.286350 0.213960 0.060920 18.349685 -8.924367 3.482676 -15.106900 7.145265 -22.022445 31.355907 -24.367742 44.463684 -1.796873 -10.212046 0.928278 0.148920 0.243890 0.160650 -3.557627 -1.945354 -9.480441 10.292974 -1.347588 18.683619 -4.116831 1.644676 13.398924 3.099162 -4.189340 -18.334313 -10.441374 3.672670 37.816957 -0.357690 0.279590 -7.837160 -24.382751 -31.911760 9.120323 -33.272640 -8.773851 -6.310217 -35.070544 -26.020444 3.296660 -3.569996 3.129513 0.314930 0.105280 0.025820 0.182160 18.900302 36.922509 14.815659 33.234540 5.332934 -9.371664 29.978301 29.302597 2.505931 1.997928 -1.442601 -0.083960 0.282970 0.050750 -0.052780 
0.154850 15.993880 -1.498910 -3.798161 -2.215150 -4.658128 -15.280227 11.158834 4.863243 18.900190 -5.300744 -25.193569 -30.342048 27.189396 45.275334 1.635438 12.781975 0.294993 0.314900 0.278340 0.074220 18.375324 -8.941077 3.492118 -15.217670 7.150951 -21.919448 31.551926 -24.841756 45.143057 -1.841261 -10.388302 0.850880 0.199230 0.241090 0.163120 -3.618949 -1.809511 -9.456742 10.242295 -1.425787 18.315745 -4.262625 1.535434 16.699226 3.154174 -4.097158 -19.345254 -10.047601 3.612483 37.159845 -0.521980 0.344710 -8.120690 -23.245351 -34.609239 9.848408 -32.817706 -9.194999 -7.290607 -33.678613 -27.142914 2.965792 -3.544557 3.142047 0.275320 0.115780 0.030210 0.180320 17.757792 39.535828 15.592942 33.376149 5.790356 -10.184964 27.478988 30.314749 1.894496 1.938095 -1.466712 -0.068260 0.288910 0.041460 -0.038600 
0.152280 15.925690 -1.501960 -3.521847 -2.067235 -4.964833 -15.279912 11.018807 4.889302 18.883969 -5.515245 -25.409792 -30.827340 28.040163 46.260861 1.693875 13.045529 0.215111 0.344040 0.323290 0.082020 18.398548 -8.877810 3.534697 -15.879507 7.239639 -22.296824 32.285233 -25.803611 46.055127 -1.911857 -10.680565 0.752208 0.240370 0.241930 0.165270 -3.656084 -1.709226 -9.477694 9.967892 -1.377698 17.905380 -4.290941 1.552546 19.036463 3.068321 -4.055091 -20.053117 -9.803058 3.621261 36.664936 -0.384040 0.295690 -8.158370 -22.184229 -36.453977 10.280857 -32.510321 -9.443809 -7.979205 -32.890706 -27.765166 2.683635 -3.527937 3.160058 0.251000 0.126090 0.021800 0.182160 16.973798 41.303985 16.139126 33.600371 6.049509 -10.611519 25.012855 30.635193 1.309982 1.879622 -1.492114 -0.060900 0.289550 0.037570 -0.035340 
0.150790 15.851460 -1.499530 -3.404411 -1.910604 -5.162093 -15.287569 10.875391 4.949656 19.219519 -5.694734 -25.808140 -31.435999 29.084228 47.334943 1.750333 13.360891 0.123764 0.352270 0.335540 0.083260 18.416382 -8.780710 3.582026 -16.588915 7.305699 -22.723398 33.273206 -26.915013 46.810801 -1.983163 -10.968354 0.662809 0.264490 0.247940 0.162030 -3.675221 -1.658849 -9.527969 9.837247 -1.382907 17.631224 -4.386574 1.554054 20.556692 3.085100 -3.927826 -20.598108 -9.504344 3.643297 36.482718 -0.369650 0.328300 -8.099400 -21.438116 -37.769939 10.629671 -32.356012 -9.421247 -8.474382 -32.209959 -28.086830 2.413182 -3.517073 3.156323 0.247050 0.136170 0.010520 0.178280 16.247236 42.515835 16.505581 34.043148 6.103416 -11.041730 23.191009 31.066804 0.906824 1.829382 -1.503791 -0.072220 0.297370 0.044710 -0.041900 
